<svg id="visual" viewBox="0 0 900 600" width="900" height="600" xmlns="http://www.w3.org/2000/svg" xmlns:xlink="http://www.w3.org/1999/xlink" version="1.1"><rect x="0" y="0" width="900" height="600" fill="#1f2720"></rect><path d="M0 223L150 227L300 236L450 254L600 270L750 263L900 225L900 601L750 601L600 601L450 601L300 601L150 601L0 601Z" fill="#4b4643"></path><path d="M0 326L150 292L300 264L450 258L600 274L750 315L900 315L900 601L750 601L600 601L450 601L300 601L150 601L0 601Z" fill="#3f3a37"></path><path d="M0 321L150 321L300 345L450 319L600 383L750 374L900 392L900 601L750 601L600 601L450 601L300 601L150 601L0 601Z" fill="#332e2c"></path><path d="M0 417L150 393L300 379L450 404L600 395L750 388L900 436L900 601L750 601L600 601L450 601L300 601L150 601L0 601Z" fill="#272222"></path><path d="M0 482L150 473L300 501L450 494L600 494L750 473L900 493L900 601L750 601L600 601L450 601L300 601L150 601L0 601Z" fill="#1c1817"></path><path d="M0 542L150 548L300 506L450 529L600 516L750 549L900 556L900 601L750 601L600 601L450 601L300 601L150 601L0 601Z" fill="#100a09"></path></svg>